<?xml version="1.0" encoding="iso-8859-1"?>
<!-- Uploaded to: SVG Repo, www.svgrepo.com, Generator: SVG Repo Mixer Tools -->
<svg fill="#000000" height="800px" width="800px" version="1.1" id="Layer_1" xmlns="http://www.w3.org/2000/svg" xmlns:xlink="http://www.w3.org/1999/xlink" 
	 viewBox="0 0 511.573 511.573" xml:space="preserve">
<g>
	<g>
		<path d="M507.947,163.413l-34.133-25.6L260.48,1.28c-2.56-1.707-5.973-1.707-9.387,0L37.76,137.813l-34.133,25.6
			c-3.413,2.56-4.267,8.533-1.707,11.947c0.853,2.56,3.413,3.413,5.973,3.413c1.707,0,3.413-0.853,5.12-1.707l20.48-15.36v8.533
			h68.267c5.12,0,8.533,3.413,8.533,8.533s-3.413,8.533-8.533,8.533H33.493v17.067H76.16c5.12,0,8.533,3.413,8.533,8.533
			c0,5.12-3.413,8.533-8.533,8.533H33.493v17.067h443.733V221.44H434.56c-5.12,0-8.533-3.413-8.533-8.533
			c0-5.12,3.413-8.533,8.533-8.533h42.667v-17.067H408.96c-5.12,0-8.533-3.413-8.533-8.533s3.413-8.533,8.533-8.533h68.267v-8.533
			l20.48,15.36c1.707,0.853,3.413,1.707,5.12,1.707c2.56,0,5.12-0.853,6.827-3.413C512.213,171.947,511.36,165.973,507.947,163.413z
			"/>
	</g>
</g>
<g>
	<g>
		<path d="M408.107,272.64h68.267v-17.067H33.493v17.067h68.267c5.12,0,8.533,3.413,8.533,8.533s-3.413,8.533-8.533,8.533H33.493
			v17.067H76.16c5.12,0,8.533,3.413,8.533,8.533s-3.413,8.533-8.533,8.533H33.493v17.067h153.6
			c0.853-18.773,17.067-34.133,35.84-34.133h64c19.627,0,34.987,15.36,35.84,34.133h153.6V323.84h-42.667
			c-5.12,0-8.533-3.413-8.533-8.533s3.413-8.533,8.533-8.533h42.667v-17.067h-68.267c-5.12,0-8.533-3.413-8.533-8.533
			S402.987,272.64,408.107,272.64z"/>
	</g>
</g>
<g>
	<g>
		<path d="M287.787,323.84h-64c-11.093,0-19.627,8.533-19.627,18.773v117.76h102.4v-117.76
			C306.56,332.373,298.027,323.84,287.787,323.84z"/>
	</g>
</g>
<g>
	<g>
		<path d="M33.493,357.973v17.067h68.267c5.12,0,8.533,3.413,8.533,8.533s-3.413,8.533-8.533,8.533H33.493v17.067H76.16
			c5.12,0,8.533,3.413,8.533,8.533s-3.413,8.533-8.533,8.533H33.493v25.6v51.2c0,5.12,3.413,8.533,8.533,8.533h51.2
			c5.12,0,8.533-3.413,8.533-8.533v-42.667h85.333v-102.4H33.493z M84.693,494.507H50.56v-34.133h34.133V494.507z"/>
	</g>
</g>
<g>
	<g>
		<path d="M408.96,375.04h68.267v-17.067h-153.6v102.4h85.333v42.667c0,5.12,3.413,8.533,8.533,8.533h51.2
			c5.12,0,8.533-3.413,8.533-8.533v-51.2v-25.6H434.56c-5.12,0-8.533-3.413-8.533-8.533s3.413-8.533,8.533-8.533h42.667v-17.067
			H408.96c-5.12,0-8.533-3.413-8.533-8.533S403.84,375.04,408.96,375.04z M426.027,460.373h34.133v34.133h-34.133V460.373z"/>
	</g>
</g>
</svg>