<?xml version="1.0" encoding="iso-8859-1"?>
<!-- Uploaded to: SVG Repo, www.svgrepo.com, Generator: SVG Repo Mixer Tools -->
<svg fill="#000000" height="800px" width="800px" version="1.1" id="Layer_1" xmlns="http://www.w3.org/2000/svg" xmlns:xlink="http://www.w3.org/1999/xlink" 
	 viewBox="0 0 511.999 511.999" xml:space="preserve">
<g>
	<g>
		<path d="M508.586,163.837l-34.133-25.6c-0.057-0.043-0.118-0.077-0.176-0.119c-0.097-0.069-0.195-0.138-0.295-0.204
			c-0.017-0.011-0.032-0.025-0.049-0.036L260.599,1.346c-2.807-1.792-6.391-1.792-9.199,0L38.067,137.879
			c-0.017,0.011-0.032,0.025-0.049,0.036c-0.1,0.065-0.198,0.134-0.295,0.204c-0.058,0.041-0.119,0.076-0.176,0.119l-34.133,25.6
			c-3.772,2.825-4.531,8.175-1.707,11.947c1.681,2.236,4.241,3.413,6.835,3.413c1.775,0,3.575-0.555,5.111-1.707l20.48-15.36v85.333
			v102.4v102.4v51.2c0,4.71,3.823,8.533,8.533,8.533h51.2c4.71,0,8.533-3.823,8.533-8.533v-42.667h93.867h119.467H409.6v42.667
			c0,4.71,3.823,8.533,8.533,8.533h51.2c4.71,0,8.533-3.823,8.533-8.533v-51.2V349.898c0-0.011,0.002-0.022,0.002-0.034v-102.4
			c0-0.011-0.002-0.022-0.002-0.034v-85.3l20.48,15.36c1.536,1.152,3.337,1.707,5.112,1.707c2.594,0,5.154-1.178,6.835-3.413
			C513.117,172.012,512.358,166.662,508.586,163.837z M324.208,341.331c-0.013-0.239-0.039-0.474-0.057-0.712
			c-0.026-0.341-0.047-0.684-0.082-1.022c-0.027-0.256-0.065-0.509-0.097-0.763c-0.042-0.338-0.079-0.677-0.131-1.011
			c-0.031-0.202-0.073-0.4-0.107-0.6c-0.119-0.692-0.258-1.377-0.416-2.056c-0.06-0.259-0.114-0.52-0.18-0.776
			c-0.076-0.298-0.166-0.591-0.249-0.885c-0.076-0.267-0.146-0.537-0.228-0.802c-0.09-0.292-0.192-0.578-0.29-0.867
			c-0.088-0.262-0.172-0.525-0.266-0.784c-0.104-0.287-0.219-0.568-0.33-0.852c-0.1-0.255-0.196-0.511-0.301-0.763
			c-0.117-0.28-0.244-0.555-0.369-0.831c-0.112-0.249-0.22-0.5-0.338-0.746c-0.13-0.274-0.27-0.542-0.407-0.812
			c-0.123-0.242-0.243-0.484-0.371-0.723c-0.144-0.269-0.296-0.532-0.447-0.797c-0.132-0.232-0.262-0.465-0.4-0.694
			c-0.158-0.263-0.323-0.521-0.487-0.78c-0.141-0.223-0.281-0.447-0.428-0.666c-0.17-0.256-0.347-0.507-0.523-0.758
			c-0.151-0.215-0.301-0.43-0.456-0.641c-0.183-0.249-0.372-0.493-0.561-0.737c-0.159-0.206-0.318-0.411-0.482-0.613
			c-0.195-0.241-0.395-0.477-0.596-0.712c-0.168-0.197-0.336-0.393-0.508-0.587c-0.206-0.231-0.416-0.459-0.628-0.685
			c-0.177-0.189-0.354-0.376-0.535-0.561c-0.216-0.221-0.436-0.439-0.658-0.654c-0.186-0.181-0.373-0.36-0.563-0.537
			c-0.226-0.21-0.455-0.417-0.686-0.622c-0.194-0.172-0.39-0.342-0.588-0.51c-0.236-0.2-0.474-0.397-0.715-0.59
			c-0.202-0.163-0.407-0.323-0.613-0.482c-0.244-0.188-0.49-0.373-0.74-0.555c-0.212-0.155-0.427-0.307-0.643-0.457
			c-0.251-0.175-0.502-0.347-0.757-0.516c-0.222-0.147-0.447-0.29-0.673-0.432c-0.257-0.161-0.514-0.322-0.775-0.477
			c-0.233-0.138-0.468-0.272-0.705-0.406c-0.261-0.147-0.522-0.294-0.787-0.435c-0.243-0.13-0.49-0.254-0.737-0.378
			c-0.265-0.134-0.531-0.267-0.799-0.394c-0.253-0.12-0.51-0.233-0.766-0.347c-0.27-0.12-0.539-0.24-0.812-0.354
			c-0.264-0.11-0.531-0.212-0.798-0.315c-0.271-0.105-0.541-0.212-0.815-0.31c-0.277-0.1-0.559-0.191-0.839-0.284
			c-0.27-0.09-0.539-0.182-0.812-0.265c-0.291-0.089-0.586-0.169-0.88-0.25c-0.268-0.075-0.536-0.153-0.807-0.221
			c-0.307-0.078-0.619-0.145-0.929-0.215c-0.263-0.059-0.524-0.123-0.788-0.176c-0.327-0.066-0.659-0.12-0.99-0.177
			c-0.254-0.044-0.505-0.093-0.76-0.131c-0.355-0.053-0.714-0.094-1.072-0.137c-0.235-0.028-0.468-0.063-0.705-0.087
			c-0.402-0.04-0.809-0.066-1.215-0.093c-0.197-0.013-0.393-0.034-0.591-0.044c-0.605-0.03-1.214-0.046-1.827-0.046h-0.002h-64.186
			h-0.002c-0.017,0-0.033,0.001-0.05,0.001c-0.595,0.001-1.187,0.016-1.775,0.045c-0.222,0.011-0.442,0.034-0.663,0.049
			c-0.381,0.026-0.763,0.049-1.141,0.087c-0.255,0.026-0.506,0.063-0.76,0.093c-0.34,0.041-0.68,0.079-1.017,0.13
			c-0.268,0.04-0.533,0.092-0.8,0.138c-0.318,0.055-0.636,0.107-0.951,0.17c-0.274,0.055-0.543,0.12-0.815,0.182
			c-0.302,0.068-0.605,0.133-0.904,0.209c-0.276,0.07-0.548,0.149-0.822,0.226c-0.289,0.081-0.58,0.159-0.866,0.246
			c-0.275,0.084-0.545,0.177-0.817,0.267c-0.279,0.093-0.56,0.184-0.836,0.283c-0.273,0.098-0.542,0.204-0.812,0.309
			c-0.269,0.104-0.538,0.207-0.803,0.317c-0.27,0.112-0.537,0.232-0.804,0.35c-0.259,0.115-0.519,0.23-0.775,0.351
			c-0.266,0.126-0.527,0.257-0.789,0.389c-0.251,0.126-0.501,0.252-0.748,0.384c-0.261,0.139-0.518,0.283-0.775,0.428
			c-0.241,0.136-0.481,0.272-0.718,0.414c-0.257,0.153-0.51,0.31-0.762,0.469c-0.23,0.145-0.459,0.29-0.686,0.44
			c-0.251,0.166-0.499,0.336-0.746,0.508c-0.219,0.153-0.437,0.307-0.653,0.464c-0.247,0.18-0.49,0.364-0.732,0.55
			c-0.208,0.16-0.414,0.321-0.618,0.486c-0.241,0.194-0.478,0.39-0.714,0.59c-0.197,0.167-0.392,0.336-0.586,0.508
			c-0.233,0.206-0.464,0.415-0.692,0.627c-0.186,0.173-0.37,0.349-0.552,0.526c-0.227,0.22-0.452,0.442-0.673,0.669
			c-0.174,0.178-0.344,0.358-0.515,0.54c-0.22,0.234-0.438,0.47-0.652,0.711c-0.161,0.181-0.318,0.365-0.476,0.549
			c-0.213,0.25-0.425,0.5-0.632,0.756c-0.148,0.182-0.291,0.368-0.435,0.553c-0.206,0.265-0.411,0.531-0.61,0.802
			c-0.135,0.183-0.265,0.37-0.396,0.556c-0.198,0.28-0.395,0.561-0.585,0.847c-0.121,0.183-0.237,0.369-0.355,0.554
			c-0.19,0.298-0.38,0.596-0.561,0.899c-0.106,0.177-0.206,0.358-0.309,0.537c-0.183,0.318-0.365,0.635-0.538,0.959
			c-0.09,0.168-0.174,0.34-0.262,0.51c-0.176,0.342-0.351,0.683-0.516,1.031c-0.071,0.149-0.136,0.302-0.205,0.452
			c-0.171,0.374-0.342,0.749-0.501,1.13c-0.049,0.117-0.092,0.236-0.14,0.353c-0.169,0.419-0.336,0.839-0.491,1.265
			c-0.022,0.061-0.041,0.124-0.063,0.185c-1.125,3.168-1.824,6.537-2.019,10.039H51.201v-17.067H76.8
			c4.71,0,8.533-3.823,8.533-8.533s-3.823-8.533-8.533-8.533H51.201v-17.067H102.4c4.71,0,8.533-3.823,8.533-8.533
			s-3.823-8.533-8.533-8.533H51.201v-17.067H460.8v17.067h-51.2c-4.71,0-8.533,3.823-8.533,8.533s3.823,8.533,8.533,8.533h51.2
			v17.067h-25.6c-4.71,0-8.533,3.823-8.533,8.533s3.823,8.533,8.533,8.533h25.6v17.067H324.208z M93.866,443.731H51.2v-17.067h25.6
			c4.71,0,8.533-3.823,8.533-8.533s-3.823-8.533-8.533-8.533H51.2v-17.067h51.2c4.71,0,8.533-3.823,8.533-8.533
			s-3.823-8.533-8.533-8.533H51.2v-17.067h136.533v85.333H93.866z M409.6,187.731h51.2v17.067h-25.6
			c-4.71,0-8.533,3.823-8.533,8.533c0,4.71,3.823,8.533,8.533,8.533h25.6v17.067H51.2v-17.067h25.6c4.71,0,8.533-3.823,8.533-8.533
			c0-4.71-3.823-8.533-8.533-8.533H51.2v-17.067h51.2c4.71,0,8.533-3.823,8.533-8.533s-3.823-8.533-8.533-8.533H51.2v-17.067h409.6
			v17.067h-51.2c-4.71,0-8.533,3.823-8.533,8.533S404.889,187.731,409.6,187.731z M256,18.66l184.173,117.871H71.826L256,18.66z
			 M85.333,494.931H51.2v-34.133h34.133V494.931z M204.8,349.898c0-0.011,0.002-0.022,0.002-0.034v-6.494
			c0-10.539,8.568-19.106,19.106-19.106h64.186c0.865,0,1.709,0.078,2.544,0.189c6.155,0.824,11.4,4.571,14.254,9.816
			c1.472,2.707,2.309,5.808,2.309,9.101v6.494v93.867H204.8V349.898z M324.266,358.397H460.8v17.067h-51.2
			c-4.71,0-8.533,3.823-8.533,8.533s3.823,8.533,8.533,8.533h51.2v17.067h-25.6c-4.71,0-8.533,3.823-8.533,8.533
			s3.823,8.533,8.533,8.533h25.6v17.067h-42.667h-93.867V358.397z M460.8,494.931h-34.133v-34.133H460.8V494.931z"/>
	</g>
</g>
</svg>