<?xml version="1.0" encoding="iso-8859-1"?>
<!-- Uploaded to: SVG Repo, www.svgrepo.com, Generator: SVG Repo Mixer Tools -->
<svg fill="#000000" height="800px" width="800px" version="1.1" id="Layer_1" xmlns="http://www.w3.org/2000/svg" xmlns:xlink="http://www.w3.org/1999/xlink" 
	 viewBox="0 0 512 512" xml:space="preserve">
<g>
	<g>
		<g>
			<path d="M475.429,109.714h-64c-5.047,0-9.143,4.096-9.143,9.143c0,5.047,4.096,9.143,9.143,9.143h64
				c5.047,0,9.143-4.096,9.143-9.143C484.571,113.81,480.475,109.714,475.429,109.714z"/>
			<path d="M475.429,146.286h-36.571c-5.047,0-9.143,4.096-9.143,9.143s4.096,9.143,9.143,9.143h36.571
				c5.047,0,9.143-4.096,9.143-9.143S480.475,146.286,475.429,146.286z"/>
			<path d="M475.429,182.857h-64c-5.047,0-9.143,4.096-9.143,9.143s4.096,9.143,9.143,9.143h64c5.047,0,9.143-4.096,9.143-9.143
				S480.475,182.857,475.429,182.857z"/>
			<path d="M475.429,219.429h-36.571c-5.047,0-9.143,4.096-9.143,9.143c0,5.047,4.096,9.143,9.143,9.143h36.571
				c5.047,0,9.143-4.096,9.143-9.143C484.571,223.525,480.475,219.429,475.429,219.429z"/>
			<path d="M475.429,256h-64c-5.047,0-9.143,4.096-9.143,9.143c0,5.047,4.096,9.143,9.143,9.143h64c5.047,0,9.143-4.096,9.143-9.143
				C484.571,260.096,480.475,256,475.429,256z"/>
			<path d="M475.429,292.571h-36.571c-5.047,0-9.143,4.096-9.143,9.143c0,5.047,4.096,9.143,9.143,9.143h36.571
				c5.047,0,9.143-4.096,9.143-9.143C484.571,296.667,480.475,292.571,475.429,292.571z"/>
			<path d="M475.429,329.143h-64c-5.047,0-9.143,4.096-9.143,9.143c0,5.047,4.096,9.143,9.143,9.143h64
				c5.047,0,9.143-4.096,9.143-9.143C484.571,333.239,480.475,329.143,475.429,329.143z"/>
			<path d="M475.429,402.286h-64c-5.047,0-9.143,4.096-9.143,9.143s4.096,9.143,9.143,9.143h64c5.047,0,9.143-4.096,9.143-9.143
				S480.475,402.286,475.429,402.286z"/>
			<path d="M475.429,365.714h-36.571c-5.047,0-9.143,4.096-9.143,9.143c0,5.047,4.096,9.143,9.143,9.143h36.571
				c5.047,0,9.143-4.096,9.143-9.143C484.571,369.81,480.475,365.714,475.429,365.714z"/>
			<path d="M146.286,219.429h91.429c20.169,0,36.571-16.402,36.571-36.571c0-20.169-16.402-36.571-36.571-36.571h-91.429
				c-20.169,0-36.571,16.402-36.571,36.571C109.714,203.026,126.117,219.429,146.286,219.429z M146.286,164.571h91.429
				c10.085,0,18.286,8.201,18.286,18.286c0,10.085-8.201,18.286-18.286,18.286h-91.429c-10.085,0-18.286-8.201-18.286-18.286
				C128,172.773,136.201,164.571,146.286,164.571z"/>
			<path d="M251.931,330.679l-23.36-15.573v-22.534c0-3.054-1.527-5.906-4.069-7.607l-27.429-18.286
				c-3.072-2.048-7.077-2.048-10.149,0l-27.429,18.286c-2.542,1.701-4.069,4.553-4.069,7.607v22.534l-23.36,15.573
				c-2.542,1.701-4.069,4.553-4.069,7.607v27.429c0,3.063,1.527,5.915,4.069,7.607l27.429,18.286
				c1.536,1.024,3.31,1.536,5.074,1.536s3.538-0.512,5.074-1.536L192,376.704l22.354,14.903c1.536,1.024,3.31,1.536,5.074,1.536
				s3.538-0.512,5.074-1.536l27.429-18.286c2.542-1.691,4.069-4.544,4.069-7.607v-27.429
				C256,335.232,254.473,332.379,251.931,330.679z M192,285.275l18.286,12.187v17.643l-18.209,12.139L192,327.296l-0.077-0.051
				l-18.209-12.139v-17.643L192,285.275z M164.571,373.01l-18.286-12.187v-17.646l18.286-12.187l0.146,0.097l18.14,12.093v17.643
				L164.571,373.01z M237.714,360.823l-18.286,12.187l-18.286-12.187V343.18l18.14-12.093l0.146-0.097l18.286,12.187V360.823z"/>
			<path d="M365.714,0H9.143v91.429h18.286V448v54.857c0,5.047,4.096,9.143,9.143,9.143h54.857c5.047,0,9.143-4.096,9.143-9.143
				v-45.714H256v45.714c0,5.047,4.096,9.143,9.143,9.143H320c5.047,0,9.143-4.096,9.143-9.143v-45.714h18.286h64v45.714
				c0,5.047,4.096,9.143,9.143,9.143h54.857c5.047,0,9.143-4.096,9.143-9.143v-45.714h18.286V91.429v-9.143V0H365.714z
				 M484.571,18.286v54.857H374.857V18.286H484.571z M27.429,18.286h329.143v54.857H27.429V18.286z M338.286,91.429v347.429H320
				h-54.857H91.429H45.714V91.429H338.286z M82.286,493.714H45.714v-36.571h36.571V493.714z M310.857,493.714h-36.571v-36.571
				h36.571V493.714z M466.286,493.714h-36.571v-36.571h36.571V493.714z M484.571,118.857v36.571V192v36.571v36.571v36.571v36.571
				v36.571v36.571v27.429h-9.143h-54.857h-64V91.429h9.143h118.857V118.857z"/>
		</g>
	</g>
</g>
</svg>