<?xml version="1.0" encoding="iso-8859-1"?>
<!-- Uploaded to: SVG Repo, www.svgrepo.com, Generator: SVG Repo Mixer Tools -->
<svg fill="#000000" height="800px" width="800px" version="1.1" id="Layer_1" xmlns="http://www.w3.org/2000/svg" xmlns:xlink="http://www.w3.org/1999/xlink" 
	 viewBox="0 0 512 512" xml:space="preserve">
<g>
	<g>
		<g>
			<path d="M503.467,17.067H8.533C3.814,17.067,0,20.89,0,25.6v51.2c0,4.71,3.814,8.533,8.533,8.533h8.533v34.133
				c0,4.71,3.814,8.533,8.533,8.533h8.533v298.667V486.4c0,4.71,3.814,8.533,8.533,8.533h51.2c4.719,0,8.533-3.823,8.533-8.533
				v-51.2h93.867h119.467H409.6v51.2c0,4.71,3.814,8.533,8.533,8.533h51.2c4.719,0,8.533-3.823,8.533-8.533v-59.733V128h8.533
				c4.719,0,8.533-3.823,8.533-8.533V85.333h8.533c4.719,0,8.533-3.823,8.533-8.533V25.6C512,20.89,508.186,17.067,503.467,17.067z
				 M85.333,477.867H51.2V435.2h34.133V477.867z M204.8,418.133v-42.667c0-28.237,22.963-51.2,51.2-51.2s51.2,22.963,51.2,51.2
				v42.667H204.8z M460.8,477.867h-34.133V435.2H460.8V477.867z M460.8,418.133h-42.667h-93.867v-42.667
				c0-37.641-30.626-68.267-68.267-68.267c-37.641,0-68.267,30.626-68.267,68.267v42.667H93.867H51.2V128h409.6V418.133z
				 M477.867,110.933h-8.533H42.667h-8.533v-25.6h443.733V110.933z M494.933,68.267H486.4H25.6h-8.533V34.133h477.867V68.267z"/>
			<path d="M179.2,221.867h153.6c18.825,0,34.133-15.309,34.133-34.133S351.625,153.6,332.8,153.6H179.2
				c-18.825,0-34.133,15.309-34.133,34.133S160.375,221.867,179.2,221.867z M179.2,170.667h153.6
				c9.412,0,17.067,7.654,17.067,17.067c0,9.412-7.654,17.067-17.067,17.067H179.2c-9.412,0-17.067-7.654-17.067-17.067
				C162.133,178.321,169.788,170.667,179.2,170.667z"/>
			<path d="M76.8,264.533c4.719,0,8.533-3.823,8.533-8.533v-34.133c0-4.71-3.814-8.533-8.533-8.533s-8.533,3.823-8.533,8.533V256
				C68.267,260.71,72.081,264.533,76.8,264.533z"/>
			<path d="M76.8,196.267c4.719,0,8.533-3.823,8.533-8.533V153.6c0-4.71-3.814-8.533-8.533-8.533s-8.533,3.823-8.533,8.533v34.133
				C68.267,192.444,72.081,196.267,76.8,196.267z"/>
			<path d="M76.8,332.8c4.719,0,8.533-3.823,8.533-8.533v-34.133c0-4.71-3.814-8.533-8.533-8.533s-8.533,3.823-8.533,8.533v34.133
				C68.267,328.977,72.081,332.8,76.8,332.8z"/>
			<path d="M76.8,401.067c4.719,0,8.533-3.823,8.533-8.533V358.4c0-4.71-3.814-8.533-8.533-8.533s-8.533,3.823-8.533,8.533v34.133
				C68.267,397.244,72.081,401.067,76.8,401.067z"/>
			<path d="M435.2,264.533c4.719,0,8.533-3.823,8.533-8.533v-34.133c0-4.71-3.814-8.533-8.533-8.533s-8.533,3.823-8.533,8.533V256
				C426.667,260.71,430.481,264.533,435.2,264.533z"/>
			<path d="M435.2,196.267c4.719,0,8.533-3.823,8.533-8.533V153.6c0-4.71-3.814-8.533-8.533-8.533s-8.533,3.823-8.533,8.533v34.133
				C426.667,192.444,430.481,196.267,435.2,196.267z"/>
			<path d="M435.2,332.8c4.719,0,8.533-3.823,8.533-8.533v-34.133c0-4.71-3.814-8.533-8.533-8.533s-8.533,3.823-8.533,8.533v34.133
				C426.667,328.977,430.481,332.8,435.2,332.8z"/>
			<path d="M435.2,401.067c4.719,0,8.533-3.823,8.533-8.533V358.4c0-4.71-3.814-8.533-8.533-8.533s-8.533,3.823-8.533,8.533v34.133
				C426.667,397.244,430.481,401.067,435.2,401.067z"/>
		</g>
	</g>
</g>
</svg>